<svg width="25" height="36" viewBox="0 0 25 36" fill="none" xmlns="http://www.w3.org/2000/svg">
<path d="M17 28C17 32.4183 13.4183 36 9 36C4.58172 36 1 32.4183 1 28C1 23.5817 4.58172 20 9 20C13.4183 20 17 23.5817 17 28Z" fill="#0F2044"/>
<path d="M25 17C25 21.4183 21.4183 25 17 25C13.1402 25 9.91891 22.2666 9.16616 18.6299C9.05723 18.1037 9 17.5585 9 17C9 12.5817 12.5817 9 17 9C21.4183 9 25 12.5817 25 17Z" fill="#0F2044"/>
<path d="M16 8C16 12.4183 12.4183 16 8 16C7.40125 16 6.81787 15.9342 6.25668 15.8095C2.67674 15.0139 0 11.8195 0 8C0 3.58172 3.58172 0 8 0C12.4183 0 16 3.58172 16 8Z" fill="#0F2044"/>
</svg>
