<svg width="25" height="32" viewBox="0 0 25 32" fill="none" xmlns="http://www.w3.org/2000/svg">
<path d="M1.78571 28.4444C1.78571 30.4 3.39286 32 5.35714 32H19.6429C21.6071 32 23.2143 30.4 23.2143 28.4444V10.6667C23.2143 8.71111 21.6071 7.11111 19.6429 7.11111H5.35714C3.39286 7.11111 1.78571 8.71111 1.78571 10.6667V28.4444ZM7.14286 10.6667H17.8571C18.8393 10.6667 19.6429 11.4667 19.6429 12.4444V26.6667C19.6429 27.6444 18.8393 28.4444 17.8571 28.4444H7.14286C6.16071 28.4444 5.35714 27.6444 5.35714 26.6667V12.4444C5.35714 11.4667 6.16071 10.6667 7.14286 10.6667ZM18.75 1.77778L17.4821 0.515555C17.1607 0.195555 16.6964 0 16.2321 0H8.76786C8.30357 0 7.83929 0.195555 7.51786 0.515555L6.25 1.77778H1.78571C0.803571 1.77778 0 2.57778 0 3.55556C0 4.53333 0.803571 5.33333 1.78571 5.33333H23.2143C24.1964 5.33333 25 4.53333 25 3.55556C25 2.57778 24.1964 1.77778 23.2143 1.77778H18.75Z" fill="#DC362E"/>
</svg>
