<svg width="318" height="111" viewBox="0 0 318 111" fill="none" xmlns="http://www.w3.org/2000/svg">
<g clip-path="url(#clip0_37_213)">
<path d="M29.4199 0.450073C31.443 -0.150071 33.597 -0.150081 35.6201 0.450073L36.6201 0.740112V3.04968C38.2 3.16968 39.6201 3.35044 41 3.56042V1.20984H42.3496C43.5306 1.24582 44.6571 1.7172 45.5117 2.53308C46.3662 3.34889 46.8887 4.45183 46.9795 5.62976V10.91L45.3203 10.5497C41.1075 9.65149 36.8167 9.16665 32.5098 9.10046C28.2167 9.16564 23.94 9.64741 19.7402 10.5399L18.0898 10.9003V5.37976C18.2445 4.25078 18.7927 3.2127 19.6377 2.44812C20.4828 1.68347 21.571 1.24134 22.71 1.20007H24.04V3.56042C25.42 3.35043 26.84 3.16968 28.4199 3.04968V0.740112L29.4199 0.450073ZM35.29 1.75964C33.5228 1.22634 31.6373 1.22641 29.8701 1.75964V4.33972H29.6895C27.3666 4.48422 25.0533 4.75518 22.7598 5.15027V2.57019C21.9433 2.61249 21.1684 2.94337 20.5732 3.50378C19.9781 4.06415 19.6011 4.81748 19.5098 5.62976L19.46 9.2196C23.7584 8.30304 28.1358 7.80477 32.5303 7.73035C36.9447 7.80155 41.3421 8.29982 45.6602 9.2196V5.62976C45.5685 4.81592 45.1898 4.06142 44.5928 3.50085C43.9955 2.94021 43.2176 2.61016 42.3994 2.57019V5.13953C40.1092 4.74504 37.7989 4.47502 35.4795 4.32996H35.29V1.75964Z" fill="white"/>
<path d="M29.4199 0.450073C31.443 -0.150071 33.597 -0.150081 35.6201 0.450073L36.6201 0.740112V3.04968C38.2 3.16968 39.6201 3.35044 41 3.56042V1.20984H42.3496C43.5306 1.24582 44.6571 1.7172 45.5117 2.53308C46.3662 3.34889 46.8887 4.45183 46.9795 5.62976V10.91L45.3203 10.5497C41.1075 9.65149 36.8167 9.16665 32.5098 9.10046C28.2167 9.16564 23.94 9.64741 19.7402 10.5399L18.0898 10.9003V5.37976C18.2445 4.25078 18.7927 3.2127 19.6377 2.44812C20.4828 1.68347 21.571 1.24134 22.71 1.20007H24.04V3.56042C25.42 3.35043 26.84 3.16968 28.4199 3.04968V0.740112L29.4199 0.450073ZM35.29 1.75964C33.5228 1.22634 31.6373 1.22641 29.8701 1.75964V4.33972H29.6895C27.3666 4.48422 25.0533 4.75518 22.7598 5.15027V2.57019C21.9433 2.61249 21.1684 2.94337 20.5732 3.50378C19.9781 4.06415 19.6011 4.81748 19.5098 5.62976L19.46 9.2196C23.7584 8.30304 28.1358 7.80477 32.5303 7.73035C36.9447 7.80155 41.3421 8.29982 45.6602 9.2196V5.62976C45.5685 4.81592 45.1898 4.06142 44.5928 3.50085C43.9955 2.94021 43.2176 2.61016 42.3994 2.57019V5.13953C40.1092 4.74504 37.7989 4.47502 35.4795 4.32996H35.29V1.75964Z" stroke="black"/>
<path d="M32.5801 11.76C44.2599 11.85 55.5497 14.7001 64.3496 19.76L65.0703 20.1399V79.8499C65.0636 81.0173 64.8074 82.1701 64.3193 83.2307C63.8313 84.2913 63.1226 85.2357 62.2402 86.0002L35.5195 109.42C34.6832 110.134 33.6192 110.527 32.5195 110.527C31.4199 110.526 30.3558 110.134 29.5195 109.42L2.83008 86.0002C1.94925 85.2345 1.24085 84.29 0.75293 83.2297C0.26501 82.1694 0.00863759 81.017 0 79.8499V20.1301L0.69043 19.76H0.759766C9.47977 14.76 20.8005 11.87 32.4805 11.76H32.5801ZM1.36035 79.8596C1.36634 80.8356 1.58063 81.7994 1.98926 82.6858C2.398 83.5723 2.992 84.3618 3.73047 85.0002L30.4102 108.41C31.0016 108.914 31.7535 109.191 32.5303 109.191C33.3071 109.191 34.0589 108.914 34.6504 108.41L61.3301 85.0002C62.0698 84.3607 62.6644 83.5702 63.0732 82.6819C63.482 81.7936 63.6956 80.8277 63.7002 79.8499V77.7903C63.2849 78.4113 62.7908 78.9759 62.2305 79.47L35.5498 102.88C35.47 102.94 35.4001 103.06 35.3203 103.06L35.2305 103.14L32.5303 105.51L29.8301 103.14L29.5098 102.88L2.84961 79.47C2.27508 78.9767 1.77399 78.404 1.36035 77.7698V79.8596ZM32.4102 13.1604C20.5002 13.2704 9.64029 16.2103 1.32031 21.0002V73.2795C1.31975 74.5796 1.69847 75.8518 2.41016 76.9397C2.76461 77.5 3.19929 78.0054 3.7002 78.4397L5 79.5803L30.46 101.82L30.6904 102.01C31.2398 102.4 31.8968 102.609 32.5703 102.609C33.2438 102.609 33.9008 102.4 34.4502 102.01C34.5211 101.962 34.5883 101.909 34.6504 101.85L60 79.5803L61.3301 78.4905C61.8303 78.0621 62.2623 77.5593 62.6104 77.0002C63.3285 75.9004 63.7074 74.6136 63.7002 73.3L63.5801 21.0002C55.2601 16.1602 44.4 13.2704 32.5 13.1604H32.4102Z" fill="white"/>
<path d="M32.5801 11.76C44.2599 11.85 55.5497 14.7001 64.3496 19.76L65.0703 20.1399V79.8499C65.0636 81.0173 64.8074 82.1701 64.3193 83.2307C63.8313 84.2913 63.1226 85.2357 62.2402 86.0002L35.5195 109.42C34.6832 110.134 33.6192 110.527 32.5195 110.527C31.4199 110.526 30.3558 110.134 29.5195 109.42L2.83008 86.0002C1.94925 85.2345 1.24085 84.29 0.75293 83.2297C0.26501 82.1694 0.00863759 81.017 0 79.8499V20.1301L0.69043 19.76H0.759766C9.47977 14.76 20.8005 11.87 32.4805 11.76H32.5801ZM1.36035 79.8596C1.36634 80.8356 1.58063 81.7994 1.98926 82.6858C2.398 83.5723 2.992 84.3618 3.73047 85.0002L30.4102 108.41C31.0016 108.914 31.7535 109.191 32.5303 109.191C33.3071 109.191 34.0589 108.914 34.6504 108.41L61.3301 85.0002C62.0698 84.3607 62.6644 83.5702 63.0732 82.6819C63.482 81.7936 63.6956 80.8277 63.7002 79.8499V77.7903C63.2849 78.4113 62.7908 78.9759 62.2305 79.47L35.5498 102.88C35.47 102.94 35.4001 103.06 35.3203 103.06L35.2305 103.14L32.5303 105.51L29.8301 103.14L29.5098 102.88L2.84961 79.47C2.27508 78.9767 1.77399 78.404 1.36035 77.7698V79.8596ZM32.4102 13.1604C20.5002 13.2704 9.64029 16.2103 1.32031 21.0002V73.2795C1.31975 74.5796 1.69847 75.8518 2.41016 76.9397C2.76461 77.5 3.19929 78.0054 3.7002 78.4397L5 79.5803L30.46 101.82L30.6904 102.01C31.2398 102.4 31.8968 102.609 32.5703 102.609C33.2438 102.609 33.9008 102.4 34.4502 102.01C34.5211 101.962 34.5883 101.909 34.6504 101.85L60 79.5803L61.3301 78.4905C61.8303 78.0621 62.2623 77.5593 62.6104 77.0002C63.3285 75.9004 63.7074 74.6136 63.7002 73.3L63.5801 21.0002C55.2601 16.1602 44.4 13.2704 32.5 13.1604H32.4102Z" stroke="black"/>
<path d="M55.7202 49.83C55.8004 47.9204 56.0752 46.0239 56.5402 44.17C56.5402 44.17 50.9302 42 50.9302 48.5C50.9302 54.61 59.0002 54.14 60.0002 61V53.17C60.0002 53.17 55.6902 52.27 55.6902 49.83" fill="white"/>
<path d="M31.88 75.71C31.88 68.22 24.88 55.98 9.82 55.98C9.82 56.46 9.42 57.88 8.91 57.88H6V69L6.92 68.07L7.38 67.6L16.6 58.25C18.5263 58.8347 20.3486 59.7188 22 60.87L9.12 71.52L10.12 72.71C10.2577 72.8835 10.3222 73.104 10.2998 73.3244C10.2774 73.5448 10.1698 73.7477 10 73.89L8.45 75.21L8.11 75.51L7.42 76.1L14.79 82.56L16.69 81C16.8718 80.8424 17.1044 80.7556 17.345 80.7556C17.5856 80.7556 17.8182 80.8424 18 81L20 83L22 80.22C22 80.22 18.38 70.13 26.88 65.58C29.0479 68.4638 30.3237 71.9193 30.55 75.52C29.3975 75.9757 28.4213 76.7886 27.7644 77.8396C27.1076 78.8906 26.8046 80.1243 26.9 81.36L20.11 87.19L33.46 99V94.63C33.4653 94.393 33.5638 94.1677 33.7341 94.0029C33.9045 93.8382 34.133 93.7473 34.37 93.75H36.49L39.75 86.13C39.75 86.13 31.88 83.21 31.88 75.72" fill="white"/>
<path d="M45.0801 85L40.0801 92.35L58.8801 75.85C59.2357 75.5234 59.5191 75.1261 59.712 74.6835C59.9049 74.2409 60.003 73.7628 60.0001 73.28V63.72C58.7201 71.48 45.0001 76.07 45.0001 85.01" fill="white"/>
<path d="M20.2002 28.3903C22.3301 26.9703 22.8603 28.6298 22.8604 29.0299C22.8604 29.4299 20.89 29.9303 20.25 29.9303C19.7702 29.9302 19.8897 29.1105 19.9697 28.7203C20.002 28.5853 20.0846 28.4673 20.2002 28.3903Z" fill="white"/>
<path d="M20.2002 28.3903C22.3301 26.9703 22.8603 28.6298 22.8604 29.0299C22.8604 29.4299 20.89 29.9303 20.25 29.9303C19.7702 29.9302 19.8897 29.1105 19.9697 28.7203C20.002 28.5853 20.0846 28.4673 20.2002 28.3903Z" stroke="black"/>
<path d="M41.17 63.65C42.9292 65.1467 45.0555 66.1477 47.33 66.55C51.18 67.24 56.33 65.72 56.33 62.4C56.33 54.67 48.01 57.15 48.01 48.5C48.01 39.85 57.44 38.14 60.01 44.17V23C51.5359 18.8124 42.2123 16.6295 32.76 16.62C34.1666 16.8442 35.5493 17.199 36.89 17.68C37.37 17.85 37.89 18.03 38.29 18.23C44.63 21 48.55 26.33 48.55 32.1C48.55 32.22 48.55 32.33 48.55 32.45C47.784 31.3432 46.8838 30.3355 45.87 29.45C42.18 26.26 35.07 22.86 22.23 24.73H22.12C21.88 24.73 21.66 24.73 21.45 24.73H21.39C19.49 24.5 18.52 23.32 18.52 20.78C18.52 20.62 18.52 19.24 18.52 19.1C18.52 18.7 18.61 18.38 18.64 18.17C13.9029 19.1809 9.31767 20.8046 5 23V52.71C5.07 52.71 23.93 48.91 41.14 63.65M44.93 64.43C43.8986 63.9883 42.9409 63.3914 42.09 62.66C34.27 56 27 53.05 20.46 51.81C23.8136 48.6183 26.8295 45.0897 29.46 41.28V41.36C29.54 47.1 33.89 49.28 38.1 51.36C41.49 53.05 44.95 54.79 46.77 58.36C47.2818 59.4018 47.3817 60.5983 47.0499 61.7105C46.7181 62.8227 45.9789 63.7689 44.98 64.36M45.98 55.08C43.92 52.86 41.19 51.49 38.63 50.21C34.4 48.1 30.74 46.28 30.63 41.21C30.6318 40.4058 30.7566 39.6065 31 38.84C31.11 38.63 31.22 38.43 31.31 38.22C31.4138 38.0216 31.5072 37.818 31.59 37.61C31.67 37.42 31.74 37.24 31.81 37.05C31.88 36.86 31.94 36.66 32 36.47C31.9976 36.42 31.9976 36.37 32 36.32C32.046 36.1826 32.0827 36.0423 32.11 35.9C32.11 35.72 32.19 35.54 32.22 35.37C32.25 35.2 32.22 35.3 32.22 35.26C33.7431 36.3613 35.4305 37.2152 37.22 37.79C40.56 39.13 44.22 40.61 45.72 43.69C45.0121 45.1835 44.6497 46.8173 44.66 48.47C44.66 51.99 45.28 53.89 45.99 55.19M45.09 30.45C46.4792 31.6221 47.6242 33.056 48.46 34.67C48.2765 37.3312 47.5625 39.9289 46.36 42.31C44.48 39.39 40.81 37.91 37.67 36.66C34.78 35.5 32.27 34.5 32.27 32.83C32.2383 31.5371 31.828 30.282 31.09 29.22L31 29.07C30.9373 28.9555 30.8671 28.8453 30.79 28.74C30.7148 28.6177 30.6313 28.5008 30.54 28.39C30.4924 28.307 30.4353 28.2298 30.37 28.16C30.2888 28.0522 30.202 27.9487 30.11 27.85L30.06 27.79C29.9342 27.6525 29.8007 27.5223 29.66 27.4C29.3998 27.1479 29.1224 26.914 28.83 26.7L28.37 26.39L27.9 26.12L27.42 25.87L27.09 25.72L26.59 25.53C36.34 24.93 41.97 27.74 45.06 30.41M20 26.26C20.2405 26.1813 20.4885 26.1277 20.74 26.1H21.24H22.07C23.53 26.1 27.31 26.39 29.41 29.22L29.62 29.51C29.7918 29.7691 29.9455 30.0397 30.08 30.32C30.2298 30.6119 30.3536 30.9164 30.45 31.23C30.5152 31.4063 30.5686 31.5867 30.61 31.77C30.66 31.96 30.7 32.15 30.74 32.35C30.78 32.55 30.74 32.65 30.82 32.81C30.9 32.97 30.82 32.91 30.82 32.96C30.9058 33.4028 30.9659 33.8502 31 34.3C30.9825 35.0459 30.837 35.7833 30.57 36.48L30.52 36.62C30.4646 36.791 30.3978 36.958 30.32 37.12C30.25 37.29 30.17 37.46 30.09 37.64L30 37.76C28.86 39.17 28.35 39.92 26.56 40.22C25.36 40.1749 24.1675 40.0108 23 39.73C21.6378 39.54 20.2572 39.5198 18.89 39.67C17.78 39.8 16.3 39.67 16.3 38.25C16.2903 37.9246 16.4031 37.6074 16.6161 37.3611C16.829 37.1148 17.1266 36.9574 17.45 36.92C18.74 36.92 22.34 38.32 22.34 36.45C22.34 34.94 19.03 36.09 17.5 36.09C15.97 36.09 15.89 35.41 15.89 34.2C15.89 32.39 17.17 32.37 17.17 31.62C17.17 31.05 17.09 30.81 16.94 30.81C16.58 30.81 16.24 32.45 15.79 32.45C15.1 32.45 14.49 31.09 14.49 30.17C14.49 29.42 18.24 27.08 20.09 26.26" fill="white"/>
<path d="M103 20.3804H101.65L101.39 17.8296H97.3599C95.0999 17.8296 94.2202 18.77 94.2202 20.98V21.3403C94.2203 23.5501 95.13 24.4604 97.3599 24.4604H98.9194C102.019 24.4604 103.549 26.1002 103.549 29.2202V29.7202C103.549 32.9901 101.99 34.4702 98.6597 34.4702H92.6597V30.3696H93.9995L94.2202 32.9097H98.7202C100.93 32.9096 101.86 31.9999 101.86 29.77V29.1704C101.86 26.9906 100.93 26.0201 98.7202 26.02H97.1802C94.0602 26.02 92.5298 24.4398 92.5298 21.3198V21.0601C92.5298 17.9101 94.0402 16.27 97.1802 16.27H103V20.3804Z" fill="white"/>
<path d="M103 20.3804H101.65L101.39 17.8296H97.3599C95.0999 17.8296 94.2202 18.77 94.2202 20.98V21.3403C94.2203 23.5501 95.13 24.4604 97.3599 24.4604H98.9194C102.019 24.4604 103.549 26.1002 103.549 29.2202V29.7202C103.549 32.9901 101.99 34.4702 98.6597 34.4702H92.6597V30.3696H93.9995L94.2202 32.9097H98.7202C100.93 32.9096 101.86 31.9999 101.86 29.77V29.1704C101.86 26.9906 100.93 26.0201 98.7202 26.02H97.1802C94.0602 26.02 92.5298 24.4398 92.5298 21.3198V21.0601C92.5298 17.9101 94.0402 16.27 97.1802 16.27H103V20.3804Z" stroke="black"/>
<path d="M119.86 20.69C122.41 20.6901 123.71 21.99 123.71 24.5396V33.0699L125.34 33.3004V34.4703H122.09V24.6197C122.09 22.9001 121.39 22.1804 119.65 22.1802H116.82V33.0699L118.479 33.3004V34.4703H115.2V22.1802H109.92V33.0699L111.59 33.3004V34.4703H106.67V33.3004L108.31 33.0699V22.0699L106.67 21.8297V20.69H119.86Z" fill="white"/>
<path d="M119.86 20.69C122.41 20.6901 123.71 21.99 123.71 24.5396V33.0699L125.34 33.3004V34.4703H122.09V24.6197C122.09 22.9001 121.39 22.1804 119.65 22.1802H116.82V33.0699L118.479 33.3004V34.4703H115.2V22.1802H109.92V33.0699L111.59 33.3004V34.4703H106.67V33.3004L108.31 33.0699V22.0699L106.67 21.8297V20.69H119.86Z" stroke="black"/>
<path d="M131.07 33.0701L132.73 33.2996V34.4705H127.82V33.2996L129.459 33.0701V22.0701L127.82 21.8298V20.6902H131.07V33.0701ZM133.12 15.9998L129.64 18.4998L128.93 17.5896L132.129 14.78L133.12 15.9998Z" fill="white"/>
<path d="M131.07 33.0701L132.73 33.2996V34.4705H127.82V33.2996L129.459 33.0701V22.0701L127.82 21.8298V20.6902H131.07V33.0701ZM133.12 15.9998L129.64 18.4998L128.93 17.5896L132.129 14.78L133.12 15.9998Z" stroke="black"/>
<path d="M144.9 24.5201H143.709L143.45 22.1802H140.19C138.43 22.1802 137.72 22.8804 137.72 24.5904V30.5904C137.72 32.3101 138.43 33.0103 140.19 33.0103H144.9V34.4898H140C137.48 34.4897 136.15 33.19 136.15 30.6705L136.11 24.5201C136.11 21.9902 137.44 20.6901 139.959 20.69H144.9V24.5201Z" fill="white"/>
<path d="M144.9 24.5201H143.709L143.45 22.1802H140.19C138.43 22.1802 137.72 22.8804 137.72 24.5904V30.5904C137.72 32.3101 138.43 33.0103 140.19 33.0103H144.9V34.4898H140C137.48 34.4897 136.15 33.19 136.15 30.6705L136.11 24.5201C136.11 21.9902 137.44 20.6901 139.959 20.69H144.9V24.5201Z" stroke="black"/>
<path d="M151.4 20.6904H155.51C158.03 20.6906 159.36 21.9902 159.36 24.54V33.0703L161 33.2998V34.4697H157.75V24.6201C157.75 22.9002 157.05 22.1798 155.3 22.1797H151.4V33.0703L153.07 33.2998V34.4697H148.15V33.2998L149.79 33.0703V17.1602L148.15 16.9199V15.75H151.4V20.6904Z" fill="white"/>
<path d="M151.4 20.6904H155.51C158.03 20.6906 159.36 21.9902 159.36 24.54V33.0703L161 33.2998V34.4697H157.75V24.6201C157.75 22.9002 157.05 22.1798 155.3 22.1797H151.4V33.0703L153.07 33.2998V34.4697H148.15V33.2998L149.79 33.0703V17.1602L148.15 16.9199V15.75H151.4V20.6904Z" stroke="black"/>
<path d="M170.44 20.56C172.99 20.5601 174.29 21.89 174.29 24.4096V30.7602C174.29 33.2999 172.99 34.5999 170.44 34.6H168.1C165.58 34.5999 164.25 33.2999 164.25 30.7602V24.4096C164.25 21.89 165.58 20.5601 168.1 20.56H170.44ZM168.33 22.0502C166.56 22.0502 165.86 22.7499 165.86 24.4897V30.6498C165.86 32.4198 166.56 33.1196 168.33 33.1196H170.23C171.97 33.1194 172.68 32.4199 172.68 30.6801V24.52C172.68 22.7501 171.97 22.0504 170.23 22.0502H168.33Z" fill="white"/>
<path d="M170.44 20.56C172.99 20.5601 174.29 21.89 174.29 24.4096V30.7602C174.29 33.2999 172.99 34.5999 170.44 34.6H168.1C165.58 34.5999 164.25 33.2999 164.25 30.7602V24.4096C164.25 21.89 165.58 20.5601 168.1 20.56H170.44ZM168.33 22.0502C166.56 22.0502 165.86 22.7499 165.86 24.4897V30.6498C165.86 32.4198 166.56 33.1196 168.33 33.1196H170.23C171.97 33.1194 172.68 32.4199 172.68 30.6801V24.52C172.68 22.7501 171.97 22.0504 170.23 22.0502H168.33Z" stroke="black"/>
<path d="M183.08 31.9996H183.23L186.09 22.15L184.53 21.9097V20.69H189.24V21.8599L187.71 22.1002L184.09 34.4703H182.19L178.58 22.1002L177 21.8599V20.69H179.81L183.08 31.9996Z" fill="white"/>
<path d="M183.08 31.9996H183.23L186.09 22.15L184.53 21.9097V20.69H189.24V21.8599L187.71 22.1002L184.09 34.4703H182.19L178.58 22.1002L177 21.8599V20.69H179.81L183.08 31.9996Z" stroke="black"/>
<path d="M200.15 24.4898H198.89L198.65 22.1802H195.65C193.94 22.1802 193.23 22.83 193.23 24.44C193.23 26.05 193.91 26.7798 195.65 26.7798H196.87C199.4 26.7798 200.7 28.1 200.7 30.5699V30.6998C200.7 33.1698 199.4 34.4703 196.87 34.4703H191.67V30.7603H192.87L193.13 32.9898H196.64C198.38 32.9898 199.08 32.3701 199.08 30.6304C199.08 28.8904 198.38 28.2095 196.64 28.2095H195.42C192.9 28.2095 191.62 26.8797 191.62 24.4898V24.3902C191.62 21.9903 192.9 20.6901 195.42 20.69H200.15V24.4898Z" fill="white"/>
<path d="M200.15 24.4898H198.89L198.65 22.1802H195.65C193.94 22.1802 193.23 22.83 193.23 24.44C193.23 26.05 193.91 26.7798 195.65 26.7798H196.87C199.4 26.7798 200.7 28.1 200.7 30.5699V30.6998C200.7 33.1698 199.4 34.4703 196.87 34.4703H191.67V30.7603H192.87L193.13 32.9898H196.64C198.38 32.9898 199.08 32.3701 199.08 30.6304C199.08 28.8904 198.38 28.2095 196.64 28.2095H195.42C192.9 28.2095 191.62 26.8797 191.62 24.4898V24.3902C191.62 21.9903 192.9 20.6901 195.42 20.69H200.15V24.4898Z" stroke="black"/>
<path d="M206.38 26.75H209.38L211.82 20.75H214.479V21.9199L212.939 22.1602L210.78 27.5098L213.229 33.1299L214.76 33.3604V34.5303H212.14L209.38 28.2695H206.38V33.1299L208.04 33.3604V34.5303H203.13V33.2998L204.77 33.0703V17.1602L203.13 16.9199V15.75H206.38V26.75Z" fill="white"/>
<path d="M206.38 26.75H209.38L211.82 20.75H214.479V21.9199L212.939 22.1602L210.78 27.5098L213.229 33.1299L214.76 33.3604V34.5303H212.14L209.38 28.2695H206.38V33.1299L208.04 33.3604V34.5303H203.13V33.2998L204.77 33.0703V17.1602L203.13 16.9199V15.75H206.38V26.75Z" stroke="black"/>
<path d="M222.609 20.6902C225.149 20.6902 226.45 22.0199 226.45 24.5398V33.0701L228.12 33.2996V34.4705H220.89C218.37 34.4704 217.09 33.1701 217.09 30.6804V30.4197C217.09 27.92 218.37 26.6004 220.89 26.6003H224.89V24.6003C224.89 22.8805 224.19 22.16 222.45 22.1599H218.26L218.21 20.6902H222.609ZM221.12 27.9998C219.41 27.9998 218.7 28.7002 218.7 30.4402C218.7 32.1801 219.3 33.0701 221.12 33.0701H224.84V27.9998H221.12ZM225.28 15.9998L221.8 18.4998L221.1 17.5896L224.3 14.78L225.28 15.9998Z" fill="white"/>
<path d="M222.609 20.6902C225.149 20.6902 226.45 22.0199 226.45 24.5398V33.0701L228.12 33.2996V34.4705H220.89C218.37 34.4704 217.09 33.1701 217.09 30.6804V30.4197C217.09 27.92 218.37 26.6004 220.89 26.6003H224.89V24.6003C224.89 22.8805 224.19 22.16 222.45 22.1599H218.26L218.21 20.6902H222.609ZM221.12 27.9998C219.41 27.9998 218.7 28.7002 218.7 30.4402C218.7 32.1801 219.3 33.0701 221.12 33.0701H224.84V27.9998H221.12ZM225.28 15.9998L221.8 18.4998L221.1 17.5896L224.3 14.78L225.28 15.9998Z" stroke="black"/>
<path d="M245.14 24.4898H243.879L243.64 22.1802H240.64C238.92 22.1802 238.22 22.83 238.22 24.44C238.22 26.05 238.9 26.7798 240.64 26.7798H241.86C244.38 26.7798 245.68 28.1 245.68 30.5699V30.6998C245.68 33.1698 244.38 34.4703 241.86 34.4703H236.66V30.7603H237.86L238.12 32.9898H241.629C243.369 32.9898 244.07 32.3701 244.07 30.6304C244.07 28.8904 243.369 28.2095 241.629 28.2095H240.41C237.88 28.2095 236.61 26.8797 236.61 24.4898V24.3902C236.61 21.9903 237.88 20.6901 240.41 20.69H245.14V24.4898Z" fill="white"/>
<path d="M245.14 24.4898H243.879L243.64 22.1802H240.64C238.92 22.1802 238.22 22.83 238.22 24.44C238.22 26.05 238.9 26.7798 240.64 26.7798H241.86C244.38 26.7798 245.68 28.1 245.68 30.5699V30.6998C245.68 33.1698 244.38 34.4703 241.86 34.4703H236.66V30.7603H237.86L238.12 32.9898H241.629C243.369 32.9898 244.07 32.3701 244.07 30.6304C244.07 28.8904 243.369 28.2095 241.629 28.2095H240.41C237.88 28.2095 236.61 26.8797 236.61 24.4898V24.3902C236.61 21.9903 237.88 20.6901 240.41 20.69H245.14V24.4898Z" stroke="black"/>
<path d="M251.91 20.6899H255.11V22.1801H251.91V30.6996C251.91 32.4196 252.61 33.1196 254.36 33.1196H255.92V34.6H254.149C251.6 34.5999 250.3 33.2996 250.3 30.7797V22.1801H248.38V20.7504H249.78C250.2 20.7503 250.35 20.59 250.35 20.1703V17.81H251.91V20.6899Z" fill="white"/>
<path d="M251.91 20.6899H255.11V22.1801H251.91V30.6996C251.91 32.4196 252.61 33.1196 254.36 33.1196H255.92V34.6H254.149C251.6 34.5999 250.3 33.2996 250.3 30.7797V22.1801H248.38V20.7504H249.78C250.2 20.7503 250.35 20.59 250.35 20.1703V17.81H251.91V20.6899Z" stroke="black"/>
<path d="M267.33 24.4899H266.14L265.9 22.1803H264.24C262.47 22.1804 261.77 22.9 261.77 24.6198V33.0699L263.43 33.3004V34.4703H258.52V33.3004L260.16 33.0699V24.5397C260.16 22.0199 261.48 20.6901 264.01 20.6901H267.33V24.4899ZM263.82 16.9H264L265.61 14.9H267L264.58 18.2203H263.23L260.81 14.9H262.21L263.82 16.9Z" fill="white"/>
<path d="M267.33 24.4899H266.14L265.9 22.1803H264.24C262.47 22.1804 261.77 22.9 261.77 24.6198V33.0699L263.43 33.3004V34.4703H258.52V33.3004L260.16 33.0699V24.5397C260.16 22.0199 261.48 20.6901 264.01 20.6901H267.33V24.4899ZM263.82 16.9H264L265.61 14.9H267L264.58 18.2203H263.23L260.81 14.9H262.21L263.82 16.9Z" stroke="black"/>
<path d="M276.25 20.56C278.78 20.56 280.1 21.8899 280.101 24.4096V28.1303H271.94V30.5698C271.94 32.2898 272.64 32.9897 274.41 32.9897H279.66V34.4702H274.17C271.65 34.4701 270.33 33.1698 270.33 30.6498V24.4096C270.33 21.8899 271.65 20.5601 274.17 20.56H276.25ZM274.41 22.0502C272.64 22.0502 271.941 22.7699 271.94 24.4897V26.7504H278.49V24.4897C278.49 22.7699 277.79 22.0502 276.05 22.0502H274.41Z" fill="white"/>
<path d="M276.25 20.56C278.78 20.56 280.1 21.8899 280.101 24.4096V28.1303H271.94V30.5698C271.94 32.2898 272.64 32.9897 274.41 32.9897H279.66V34.4702H274.17C271.65 34.4701 270.33 33.1698 270.33 30.6498V24.4096C270.33 21.8899 271.65 20.5601 274.17 20.56H276.25ZM274.41 22.0502C272.64 22.0502 271.941 22.7699 271.94 24.4897V26.7504H278.49V24.4897C278.49 22.7699 277.79 22.0502 276.05 22.0502H274.41Z" stroke="black"/>
<path d="M292.82 33.0703L294.46 33.2998V34.4697H287.07C284.55 34.4696 283.22 33.17 283.22 30.6504V24.54C283.22 22.0202 284.55 20.6906 287.07 20.6904H291.21V17.1602L289.57 16.9199V15.75H292.82V33.0703ZM287.31 22.1797C285.54 22.1797 284.84 22.9002 284.84 24.6201V30.5703C284.84 32.29 285.54 32.9902 287.31 32.9902L291.21 33V22.1797H287.31Z" fill="white"/>
<path d="M292.82 33.0703L294.46 33.2998V34.4697H287.07C284.55 34.4696 283.22 33.17 283.22 30.6504V24.54C283.22 22.0202 284.55 20.6906 287.07 20.6904H291.21V17.1602L289.57 16.9199V15.75H292.82V33.0703ZM287.31 22.1797C285.54 22.1797 284.84 22.9002 284.84 24.6201V30.5703C284.84 32.29 285.54 32.9902 287.31 32.9902L291.21 33V22.1797H287.31Z" stroke="black"/>
<path d="M304.291 20.69C306.84 20.6901 308.14 21.99 308.14 24.5396V33.0699L309.77 33.3004V34.4703H306.52V24.6197C306.52 22.8799 305.82 22.1802 304.11 22.1802H300.18V33.0699L301.84 33.3004V34.4703H296.93V33.3004L298.57 33.0699V22.0699L296.93 21.8297V20.69H304.291Z" fill="white"/>
<path d="M304.291 20.69C306.84 20.6901 308.14 21.99 308.14 24.5396V33.0699L309.77 33.3004V34.4703H306.52V24.6197C306.52 22.8799 305.82 22.1802 304.11 22.1802H300.18V33.0699L301.84 33.3004V34.4703H296.93V33.3004L298.57 33.0699V22.0699L296.93 21.8297V20.69H304.291Z" stroke="black"/>
<path d="M315.5 33.0701L317.16 33.2996V34.4705H312.25V33.2996L313.88 33.0701V22.0701L312.25 21.8298V20.6902H315.5V33.0701ZM317.55 15.9998L314.07 18.4998L313.36 17.5896L316.56 14.78L317.55 15.9998Z" fill="white"/>
<path d="M315.5 33.0701L317.16 33.2996V34.4705H312.25V33.2996L313.88 33.0701V22.0701L312.25 21.8298V20.6902H315.5V33.0701ZM317.55 15.9998L314.07 18.4998L313.36 17.5896L316.56 14.78L317.55 15.9998Z" stroke="black"/>
<path d="M99.21 48.87C101.76 48.87 103.06 50.19 103.06 52.7098V58.83C103.06 61.3499 101.76 62.6502 99.21 62.6503H95.1299V66.1796L96.79 66.4198V67.5897H91.8799V66.4198L93.5195 66.1796V50.2704L91.8799 49.9999V48.87H99.21ZM95.1299 50.3505V61.1698H99C100.74 61.1698 101.45 60.4598 101.45 58.7499V52.7499C101.45 51.04 100.74 50.3105 99 50.3104L95.1299 50.3505Z" fill="white"/>
<path d="M99.21 48.87C101.76 48.87 103.06 50.19 103.06 52.7098V58.83C103.06 61.3499 101.76 62.6502 99.21 62.6503H95.1299V66.1796L96.79 66.4198V67.5897H91.8799V66.4198L93.5195 66.1796V50.2704L91.8799 49.9999V48.87H99.21ZM95.1299 50.3505V61.1698H99C100.74 61.1698 101.45 60.4598 101.45 58.7499V52.7499C101.45 51.04 100.74 50.3105 99 50.3104L95.1299 50.3505Z" stroke="black"/>
<path d="M115.129 52.66H113.93L113.7 50.3505H112C110.23 50.3505 109.53 51.0801 109.53 52.7899V61.2401L111.2 61.4803V62.6503H106.28V61.4803L107.919 61.2401V52.7098C107.919 50.1899 109.24 48.87 111.77 48.87H115.129V52.66Z" fill="white"/>
<path d="M115.129 52.66H113.93L113.7 50.3505H112C110.23 50.3505 109.53 51.0801 109.53 52.7899V61.2401L111.2 61.4803V62.6503H106.28V61.4803L107.919 61.2401V52.7098C107.919 50.1899 109.24 48.87 111.77 48.87H115.129V52.66Z" stroke="black"/>
<path d="M121.11 58.7198C121.11 60.4598 121.81 61.17 123.55 61.17H127.45V50.2696L125.79 50.0001V48.8702H130.7V50.0001L129.06 50.2296V61.2296L130.7 61.4698V62.6397H123.34C120.79 62.6397 119.49 61.34 119.49 58.7901V50.2696L117.86 50.0001V48.8702H121.11V58.7198ZM124.28 42.21C124.901 42.2498 125.485 42.5244 125.911 42.9786C126.337 43.4327 126.574 44.0327 126.574 44.6553C126.574 45.2778 126.336 45.8771 125.911 46.3311C125.485 46.7853 124.901 47.0599 124.28 47.0997C123.658 47.0599 123.076 46.7851 122.65 46.3311C122.224 45.877 121.986 45.2779 121.986 44.6553C121.986 44.0326 122.224 43.4327 122.65 42.9786C123.076 42.5247 123.659 42.2498 124.28 42.21ZM124.28 43.4297C123.956 43.4298 123.646 43.5585 123.417 43.7872C123.189 44.016 123.06 44.3269 123.06 44.6505C123.056 44.8121 123.084 44.9729 123.144 45.1231C123.204 45.2735 123.294 45.4105 123.408 45.5255C123.522 45.6402 123.657 45.7311 123.807 45.7921C123.957 45.853 124.118 45.8827 124.28 45.8799C124.443 45.884 124.606 45.8551 124.758 45.795C124.91 45.7349 125.049 45.645 125.166 45.5303C125.282 45.4156 125.374 45.2782 125.437 45.127C125.5 44.976 125.531 44.8139 125.53 44.6505C125.528 44.4881 125.495 44.3272 125.431 44.1778C125.368 44.0284 125.275 43.8928 125.159 43.7794C125.043 43.6661 124.905 43.5766 124.754 43.5167C124.604 43.4567 124.442 43.4271 124.28 43.4297Z" fill="white"/>
<path d="M121.11 58.7198C121.11 60.4598 121.81 61.17 123.55 61.17H127.45V50.2696L125.79 50.0001V48.8702H130.7V50.0001L129.06 50.2296V61.2296L130.7 61.4698V62.6397H123.34C120.79 62.6397 119.49 61.34 119.49 58.7901V50.2696L117.86 50.0001V48.8702H121.11V58.7198ZM124.28 42.21C124.901 42.2498 125.485 42.5244 125.911 42.9786C126.337 43.4327 126.574 44.0327 126.574 44.6553C126.574 45.2778 126.336 45.8771 125.911 46.3311C125.485 46.7853 124.901 47.0599 124.28 47.0997C123.658 47.0599 123.076 46.7851 122.65 46.3311C122.224 45.877 121.986 45.2779 121.986 44.6553C121.986 44.0326 122.224 43.4327 122.65 42.9786C123.076 42.5247 123.659 42.2498 124.28 42.21ZM124.28 43.4297C123.956 43.4298 123.646 43.5585 123.417 43.7872C123.189 44.016 123.06 44.3269 123.06 44.6505C123.056 44.8121 123.084 44.9729 123.144 45.1231C123.204 45.2735 123.294 45.4105 123.408 45.5255C123.522 45.6402 123.657 45.7311 123.807 45.7921C123.957 45.853 124.118 45.8827 124.28 45.8799C124.443 45.884 124.606 45.8551 124.758 45.795C124.91 45.7349 125.049 45.645 125.166 45.5303C125.282 45.4156 125.374 45.2782 125.437 45.127C125.5 44.976 125.531 44.8139 125.53 44.6505C125.528 44.4881 125.495 44.3272 125.431 44.1778C125.368 44.0284 125.275 43.8928 125.159 43.7794C125.043 43.6661 124.905 43.5766 124.754 43.5167C124.604 43.4567 124.442 43.4271 124.28 43.4297Z" stroke="black"/>
<path d="M147 48.87C149.549 48.87 150.85 50.1699 150.85 52.7098V61.2401L152.48 61.4803V62.6503H149.23V52.7899C149.23 51.08 148.53 50.3505 146.79 50.3505H144V61.2401L145.669 61.4803V62.6503H142.39V50.3505H137.07V61.2401L138.74 61.4803V62.6503H133.82V61.4803L135.459 61.2401V50.2401L133.82 49.9999V48.87H147Z" fill="white"/>
<path d="M147 48.87C149.549 48.87 150.85 50.1699 150.85 52.7098V61.2401L152.48 61.4803V62.6503H149.23V52.7899C149.23 51.08 148.53 50.3505 146.79 50.3505H144V61.2401L145.669 61.4803V62.6503H142.39V50.3505H137.07V61.2401L138.74 61.4803V62.6503H133.82V61.4803L135.459 61.2401V50.2401L133.82 49.9999V48.87H147Z" stroke="black"/>
<path d="M156.92 57.4501C156.92 59.16 157.62 59.87 159.36 59.87H163.26V50.2704L161.6 49.9999V48.87H166.51V49.9999L164.87 50.2303V63.7401C164.87 66.4199 163.44 67.5896 160.74 67.5897H156.24V66.1102H160.82C162.56 66.1101 163.26 65.3799 163.26 63.66V61.3505H159.15C156.6 61.3505 155.3 60.05 155.3 57.5302V50.2704L153.67 49.9999V48.87H156.92V57.4501Z" fill="white"/>
<path d="M156.92 57.4501C156.92 59.16 157.62 59.87 159.36 59.87H163.26V50.2704L161.6 49.9999V48.87H166.51V49.9999L164.87 50.2303V63.7401C164.87 66.4199 163.44 67.5896 160.74 67.5897H156.24V66.1102H160.82C162.56 66.1101 163.26 65.3799 163.26 63.66V61.3505H159.15C156.6 61.3505 155.3 60.05 155.3 57.5302V50.2704L153.67 49.9999V48.87H156.92V57.4501Z" stroke="black"/>
<path d="M177.73 52.66H176.55L176.32 50.3505H173.32C171.61 50.3505 170.91 51.0002 170.91 52.6102C170.91 54.2201 171.58 54.9501 173.32 54.9501H174.55C177.07 54.9501 178.37 56.28 178.37 58.7499V58.8798C178.37 61.3498 177.07 62.6503 174.55 62.6503H169.351V58.9296H170.54L170.8 61.1698H174.311C176.05 61.1697 176.76 60.5396 176.76 58.7997C176.76 57.06 176.05 56.3799 174.311 56.3798H173C170.48 56.3797 169.2 55.0499 169.2 52.66V52.5604C169.2 50.1705 170.48 48.8701 173 48.87H177.73V52.66Z" fill="white"/>
<path d="M177.73 52.66H176.55L176.32 50.3505H173.32C171.61 50.3505 170.91 51.0002 170.91 52.6102C170.91 54.2201 171.58 54.9501 173.32 54.9501H174.55C177.07 54.9501 178.37 56.28 178.37 58.7499V58.8798C178.37 61.3498 177.07 62.6503 174.55 62.6503H169.351V58.9296H170.54L170.8 61.1698H174.311C176.05 61.1697 176.76 60.5396 176.76 58.7997C176.76 57.06 176.05 56.3799 174.311 56.3798H173C170.48 56.3797 169.2 55.0499 169.2 52.66V52.5604C169.2 50.1705 170.48 48.8701 173 48.87H177.73V52.66Z" stroke="black"/>
<path d="M185.08 61.2396L186.74 61.4798V62.6497H181.83V61.4798L183.47 61.2396V45.3304L181.83 45.0999V43.93H185.08V61.2396Z" fill="white"/>
<path d="M185.08 61.2396L186.74 61.4798V62.6497H181.83V61.4798L183.47 61.2396V45.3304L181.83 45.0999V43.93H185.08V61.2396Z" stroke="black"/>
<path d="M196.15 48.74C198.7 48.74 200 50.0599 200 52.5798V58.9304C200 61.4801 198.7 62.78 196.15 62.78H193.81C191.29 62.78 189.97 61.4801 189.97 58.9304V52.5798C189.97 50.06 191.29 48.74 193.81 48.74H196.15ZM194.05 50.2205C192.28 50.2205 191.581 50.92 191.581 52.6599V58.8298C191.581 60.5898 192.28 61.2996 194.05 61.2996H196C197.74 61.2995 198.44 60.59 198.44 58.8503L198.39 52.6902C198.39 50.9203 197.69 50.2206 195.951 50.2205H194.05Z" fill="white"/>
<path d="M196.15 48.74C198.7 48.74 200 50.0599 200 52.5798V58.9304C200 61.4801 198.7 62.78 196.15 62.78H193.81C191.29 62.78 189.97 61.4801 189.97 58.9304V52.5798C189.97 50.06 191.29 48.74 193.81 48.74H196.15ZM194.05 50.2205C192.28 50.2205 191.581 50.92 191.581 52.6599V58.8298C191.581 60.5898 192.28 61.2996 194.05 61.2996H196C197.74 61.2995 198.44 60.59 198.44 58.8503L198.39 52.6902C198.39 50.9203 197.69 50.2206 195.951 50.2205H194.05Z" stroke="black"/>
<path d="M208.3 60.1298H208.46L211.32 50.2704L209.76 49.9999V48.87H214.471V49.9999L212.931 50.2303L209.32 62.6102H207.42L203.8 50.2704L202.24 49.9999V48.87H205.05L208.3 60.1298Z" fill="white"/>
<path d="M208.3 60.1298H208.46L211.32 50.2704L209.76 49.9999V48.87H214.471V49.9999L212.931 50.2303L209.32 62.6102H207.42L203.8 50.2704L202.24 49.9999V48.87H205.05L208.3 60.1298Z" stroke="black"/>
<path d="M222.58 48.8697C225.129 48.8697 226.43 50.1898 226.43 52.7095V61.2398L228.089 61.48V62.65H220.86C218.34 62.65 217.07 61.3501 217.07 58.8502V58.5904C217.07 56.0904 218.34 54.7701 220.86 54.7701H224.86V52.7701C224.86 51.0601 224.15 50.3297 222.41 50.3297H218.22L218.18 48.8697H222.58ZM221.1 56.1705C219.38 56.1705 218.68 56.8699 218.68 58.6197C218.68 60.3697 219.28 61.2398 221.1 61.2398H224.82V56.1705H221.1ZM225.26 44.1705L221.77 46.6597L221.07 45.7496L224.27 42.94L225.26 44.1705Z" fill="white"/>
<path d="M222.58 48.8697C225.129 48.8697 226.43 50.1898 226.43 52.7095V61.2398L228.089 61.48V62.65H220.86C218.34 62.65 217.07 61.3501 217.07 58.8502V58.5904C217.07 56.0904 218.34 54.7701 220.86 54.7701H224.86V52.7701C224.86 51.0601 224.15 50.3297 222.41 50.3297H218.22L218.18 48.8697H222.58ZM221.1 56.1705C219.38 56.1705 218.68 56.8699 218.68 58.6197C218.68 60.3697 219.28 61.2398 221.1 61.2398H224.82V56.1705H221.1ZM225.26 44.1705L221.77 46.6597L221.07 45.7496L224.27 42.94L225.26 44.1705Z" stroke="black"/>
<path d="M245.11 52.6599H243.85L243.62 50.3503H240.62C238.9 50.3503 238.2 51 238.2 52.61C238.2 54.22 238.87 54.9499 240.62 54.9499H241.84C244.36 54.9499 245.66 56.2799 245.66 58.7497V58.8796C245.66 61.3496 244.36 62.6501 241.84 62.6501H236.64V58.9304H237.83L238.09 61.1696H241.6C243.349 61.1696 244.05 60.5401 244.05 58.8005C244.05 57.0605 243.35 56.3796 241.6 56.3796H240.38C237.86 56.3795 236.58 55.0498 236.58 52.6599V52.5602C236.58 50.1703 237.86 48.8699 240.38 48.8698H245.11V52.6599ZM241.021 45.07H241.17L242.79 43.07H244.19L241.771 46.4001H240.42L238 43.07H239.4L241.021 45.07Z" fill="white"/>
<path d="M245.11 52.6599H243.85L243.62 50.3503H240.62C238.9 50.3503 238.2 51 238.2 52.61C238.2 54.22 238.87 54.9499 240.62 54.9499H241.84C244.36 54.9499 245.66 56.2799 245.66 58.7497V58.8796C245.66 61.3496 244.36 62.6501 241.84 62.6501H236.64V58.9304H237.83L238.09 61.1696H241.6C243.349 61.1696 244.05 60.5401 244.05 58.8005C244.05 57.0605 243.35 56.3796 241.6 56.3796H240.38C237.86 56.3795 236.58 55.0498 236.58 52.6599V52.5602C236.58 50.1703 237.86 48.8699 240.38 48.8698H245.11V52.6599ZM241.021 45.07H241.17L242.79 43.07H244.19L241.771 46.4001H240.42L238 43.07H239.4L241.021 45.07Z" stroke="black"/>
<path d="M251.86 54.93H254.86L257.31 48.93H260V50.0003L258.459 50.2298L256.31 55.5901L258.75 61.1995L260.28 61.4398V62.6097H257.66L254.9 56.3401H251.9V61.1995L253.57 61.4398V62.6097H248.65L248.61 61.4798L250.25 61.2396V45.3304L248.61 45.0999V43.93H251.86V54.93Z" fill="white"/>
<path d="M251.86 54.93H254.86L257.31 48.93H260V50.0003L258.459 50.2298L256.31 55.5901L258.75 61.1995L260.28 61.4398V62.6097H257.66L254.9 56.3401H251.9V61.1995L253.57 61.4398V62.6097H248.65L248.61 61.4798L250.25 61.2396V45.3304L248.61 45.0999V43.93H251.86V54.93Z" stroke="black"/>
<path d="M269.41 48.74C271.96 48.74 273.26 50.0599 273.26 52.5798V58.9304C273.26 61.4801 271.96 62.78 269.41 62.78H267.07C264.55 62.78 263.23 61.4801 263.23 58.9304V52.5798C263.23 50.06 264.55 48.74 267.07 48.74H269.41ZM267.31 50.2205C265.54 50.2205 264.84 50.92 264.84 52.6599V58.8298C264.84 60.5898 265.54 61.2996 267.31 61.2996H269.21C270.95 61.2994 271.65 60.5899 271.65 58.8503V52.6902C271.65 50.9204 270.95 50.2206 269.21 50.2205H267.31Z" fill="white"/>
<path d="M269.41 48.74C271.96 48.74 273.26 50.0599 273.26 52.5798V58.9304C273.26 61.4801 271.96 62.78 269.41 62.78H267.07C264.55 62.78 263.23 61.4801 263.23 58.9304V52.5798C263.23 50.06 264.55 48.74 267.07 48.74H269.41ZM267.31 50.2205C265.54 50.2205 264.84 50.92 264.84 52.6599V58.8298C264.84 60.5898 265.54 61.2996 267.31 61.2996H269.21C270.95 61.2994 271.65 60.5899 271.65 58.8503V52.6902C271.65 50.9204 270.95 50.2206 269.21 50.2205H267.31Z" stroke="black"/>
<path d="M279.37 61.2396L281.04 61.4798V62.6497H276.12V61.4798L277.76 61.2396V45.3304L276.12 45.0999V43.93H279.37V61.2396Z" fill="white"/>
<path d="M279.37 61.2396L281.04 61.4798V62.6497H276.12V61.4798L277.76 61.2396V45.3304L276.12 45.0999V43.93H279.37V61.2396Z" stroke="black"/>
<path d="M289.15 48.87C291.7 48.87 293 50.1899 293 52.7098V61.2401L294.66 61.4803V62.6503H287.44C284.91 62.6502 283.64 61.3501 283.64 58.8505V58.5897C283.64 56.09 284.91 54.7704 287.44 54.7704H291.39V52.7704C291.39 51.0604 290.69 50.33 288.94 50.33H284.76V48.87H289.15ZM287.67 56.1698C285.95 56.1698 285.25 56.87 285.25 58.62C285.25 60.37 285.85 61.2401 287.67 61.2401H291.39V56.1698H287.67Z" fill="white"/>
<path d="M289.15 48.87C291.7 48.87 293 50.1899 293 52.7098V61.2401L294.66 61.4803V62.6503H287.44C284.91 62.6502 283.64 61.3501 283.64 58.8505V58.5897C283.64 56.09 284.91 54.7704 287.44 54.7704H291.39V52.7704C291.39 51.0604 290.69 50.33 288.94 50.33H284.76V48.87H289.15ZM287.67 56.1698C285.95 56.1698 285.25 56.87 285.25 58.62C285.25 60.37 285.85 61.2401 287.67 61.2401H291.39V56.1698H287.67Z" stroke="black"/>
<path d="M97.5195 77C100.069 77 101.37 78.3199 101.37 80.8496V89.3799L103.029 89.6104V90.7803H95.7998C93.28 90.7803 92.0099 89.4802 92.0098 86.9805V86.7197C92.0099 84.2299 93.2799 82.9004 95.7998 82.9004H99.7998V81C99.7998 79.28 99.0896 78.5498 97.3496 78.5498H93.1299V77H97.5195ZM96 84.3496C94.28 84.3496 93.5801 85.05 93.5801 86.79C93.5801 88.53 94.18 89.4199 96 89.4199H99.7197V84.3496H96Z" fill="white"/>
<path d="M97.5195 77C100.069 77 101.37 78.3199 101.37 80.8496V89.3799L103.029 89.6104V90.7803H95.7998C93.28 90.7803 92.0099 89.4802 92.0098 86.9805V86.7197C92.0099 84.2299 93.2799 82.9004 95.7998 82.9004H99.7998V81C99.7998 79.28 99.0896 78.5498 97.3496 78.5498H93.1299V77H97.5195ZM96 84.3496C94.28 84.3496 93.5801 85.05 93.5801 86.79C93.5801 88.53 94.18 89.4199 96 89.4199H99.7197V84.3496H96Z" stroke="black"/>
<path d="M121.47 91.9101C121.47 94.4299 120.14 95.7596 117.62 95.7597H112.92V94.2802H117.41C119.16 94.2801 119.86 93.5499 119.86 91.83V89.8798H115.72C113.2 89.8798 111.88 88.5599 111.88 86.04V80.8896C111.88 78.3599 113.2 77.04 115.72 77.04H121.47V91.9101ZM116 78.5204C114.23 78.5204 113.53 79.2499 113.53 80.9697V85.9697C113.53 87.6797 114.23 88.4101 116 88.4101H119.899V78.5204H116Z" fill="white"/>
<path d="M121.47 91.9101C121.47 94.4299 120.14 95.7596 117.62 95.7597H112.92V94.2802H117.41C119.16 94.2801 119.86 93.5499 119.86 91.83V89.8798H115.72C113.2 89.8798 111.88 88.5599 111.88 86.04V80.8896C111.88 78.3599 113.2 77.04 115.72 77.04H121.47V91.9101ZM116 78.5204C114.23 78.5204 113.53 79.2499 113.53 80.9697V85.9697C113.53 87.6797 114.23 88.4101 116 88.4101H119.899V78.5204H116Z" stroke="black"/>
<path d="M127.45 85.5801C127.45 87.3 128.15 88 129.9 88H133.8V78.4004L132.13 78.1699V77H137.05V78.1699L135.41 78.4004V91.9102C135.41 94.5899 133.98 95.7597 131.271 95.7598H126.78V94.2803H131.351C133.09 94.2802 133.8 93.5499 133.8 91.8301V89.5195H129.69C127.14 89.5195 125.84 88.2201 125.84 85.7002V78.4404L124.2 78.21V77H127.45V85.5801Z" fill="white"/>
<path d="M127.45 85.5801C127.45 87.3 128.15 88 129.9 88H133.8V78.4004L132.13 78.1699V77H137.05V78.1699L135.41 78.4004V91.9102C135.41 94.5899 133.98 95.7597 131.271 95.7598H126.78V94.2803H131.351C133.09 94.2802 133.8 93.5499 133.8 91.8301V89.5195H129.69C127.14 89.5195 125.84 88.2201 125.84 85.7002V78.4404L124.2 78.21V77H127.45V85.5801Z" stroke="black"/>
<path d="M152.83 77C155.379 77 156.68 78.2999 156.68 80.8496V89.3799L158.32 89.6104V90.7803H155.07V81C155.07 79.28 154.37 78.5498 152.62 78.5498H149.79V89.4502L151.45 89.6797V90.8496H148.18V78.5195H142.9V89.4199L144.56 89.6504V90.8203H139.65V89.6504L141.29 89.4199V78.4199L139.65 78.1904V77H152.83Z" fill="white"/>
<path d="M152.83 77C155.379 77 156.68 78.2999 156.68 80.8496V89.3799L158.32 89.6104V90.7803H155.07V81C155.07 79.28 154.37 78.5498 152.62 78.5498H149.79V89.4502L151.45 89.6797V90.8496H148.18V78.5195H142.9V89.4199L144.56 89.6504V90.8203H139.65V89.6504L141.29 89.4199V78.4199L139.65 78.1904V77H152.83Z" stroke="black"/>
<path d="M168.11 77C170.66 77.0001 171.96 78.3 171.96 80.8496V89.3799L173.6 89.6104L173.64 90.8203H170.39V81C170.39 79.25 169.68 78.5498 167.97 78.5498H164V89.4502L165.67 89.6797V90.8496H160.75V89.6504L162.39 89.4199V78.4199L160.75 78.1904V77H168.11Z" fill="white"/>
<path d="M168.11 77C170.66 77.0001 171.96 78.3 171.96 80.8496V89.3799L173.6 89.6104L173.64 90.8203H170.39V81C170.39 79.25 169.68 78.5498 167.97 78.5498H164V89.4502L165.67 89.6797V90.8496H160.75V89.6504L162.39 89.4199V78.4199L160.75 78.1904V77H168.11Z" stroke="black"/>
<path d="M181.75 77.0004C184.3 77.0004 185.601 78.32 185.601 80.85V89.3802L187.26 89.6097V90.7797H180C177.47 90.7796 176.2 89.4798 176.2 86.9799V86.7201C176.2 84.2302 177.47 82.8998 180 82.8998H184V81.0004C184 79.2804 183.3 78.5502 181.55 78.5502H177.37L177.36 77.0004H181.75ZM180.271 84.3099C178.551 84.3099 177.851 85.0104 177.851 86.7504C177.851 88.4901 178.451 89.3802 180.271 89.3802H184V84.35L180.271 84.3099ZM184.431 72.3099L181 74.85L180.29 73.9398L183.49 71.14L184.431 72.3099Z" fill="white"/>
<path d="M181.75 77.0004C184.3 77.0004 185.601 78.32 185.601 80.85V89.3802L187.26 89.6097V90.7797H180C177.47 90.7796 176.2 89.4798 176.2 86.9799V86.7201C176.2 84.2302 177.47 82.8998 180 82.8998H184V81.0004C184 79.2804 183.3 78.5502 181.55 78.5502H177.37L177.36 77.0004H181.75ZM180.271 84.3099C178.551 84.3099 177.851 85.0104 177.851 86.7504C177.851 88.4901 178.451 89.3802 180.271 89.3802H184V84.35L180.271 84.3099ZM184.431 72.3099L181 74.85L180.29 73.9398L183.49 71.14L184.431 72.3099Z" stroke="black"/>
<path d="M199.67 78.4805L192.26 89.1797V89.3398H198.189L198.42 87.0996H199.64V90.8203H190.26V89.3398L197.609 78.6797V78.5195H192L191.77 80.7803H190.55V77H199.67V78.4805Z" fill="white"/>
<path d="M199.67 78.4805L192.26 89.1797V89.3398H198.189L198.42 87.0996H199.64V90.8203H190.26V89.3398L197.609 78.6797V78.5195H192L191.77 80.7803H190.55V77H199.67V78.4805Z" stroke="black"/>
<path d="M206 89.4199L207.67 89.6504V90.8203H202.75V89.6504L204.39 89.4199V78.4199L202.75 78.1904V77H206V89.4199ZM205.17 72C205.435 72 205.689 72.1055 205.877 72.293C206.064 72.4805 206.17 72.7348 206.17 73C206.152 73.2529 206.039 73.4895 205.854 73.6621C205.668 73.8348 205.423 73.9303 205.17 73.9297C205.047 73.931 204.926 73.9085 204.812 73.8623C204.699 73.816 204.596 73.7468 204.51 73.6602C204.423 73.5735 204.354 73.4708 204.308 73.3574C204.261 73.244 204.239 73.1224 204.24 73C204.252 72.7536 204.355 72.5201 204.528 72.3447C204.702 72.1696 204.934 72.0644 205.18 72.0498L205.17 72Z" fill="white"/>
<path d="M206 89.4199L207.67 89.6504V90.8203H202.75V89.6504L204.39 89.4199V78.4199L202.75 78.1904V77H206V89.4199ZM205.17 72C205.435 72 205.689 72.1055 205.877 72.293C206.064 72.4805 206.17 72.7348 206.17 73C206.152 73.2529 206.039 73.4895 205.854 73.6621C205.668 73.8348 205.423 73.9303 205.17 73.9297C205.047 73.931 204.926 73.9085 204.812 73.8623C204.699 73.816 204.596 73.7468 204.51 73.6602C204.423 73.5735 204.354 73.4708 204.308 73.3574C204.261 73.244 204.239 73.1224 204.24 73C204.252 72.7536 204.355 72.5201 204.528 72.3447C204.702 72.1696 204.934 72.0644 205.18 72.0498L205.17 72Z" stroke="black"/>
<path d="M212.62 86.8496C212.62 88.5996 213.321 89.2998 215.061 89.2998H219V78.4404L217.34 78.21V77H222.25V78.1699L220.62 78.4004V89.4004L222.25 89.6299V90.7998H214.9C212.35 90.7998 211.05 89.5001 211.05 86.9502V78.4404L209.41 78.21L209.37 77H212.62V86.8496Z" fill="white"/>
<path d="M212.62 86.8496C212.62 88.5996 213.321 89.2998 215.061 89.2998H219V78.4404L217.34 78.21V77H222.25V78.1699L220.62 78.4004V89.4004L222.25 89.6299V90.7998H214.9C212.35 90.7998 211.05 89.5001 211.05 86.9502V78.4404L209.41 78.21L209.37 77H212.62V86.8496Z" stroke="black"/>
<path d="M238.52 77C241.069 77 242.37 78.2999 242.37 80.8496V89.3799L244.01 89.6104V90.7803H240.76V81C240.76 79.28 240.05 78.5498 238.31 78.5498H235.479V89.4502L237.14 89.6797V90.8496H233.87V78.5195H228.59V89.4199L230.25 89.6504V90.8203H225.34V89.6504L226.97 89.4199V78.4199L225.34 78.1904V77H238.52Z" fill="white"/>
<path d="M238.52 77C241.069 77 242.37 78.2999 242.37 80.8496V89.3799L244.01 89.6104V90.7803H240.76V81C240.76 79.28 240.05 78.5498 238.31 78.5498H235.479V89.4502L237.14 89.6797V90.8496H233.87V78.5195H228.59V89.4199L230.25 89.6504V90.8203H225.34V89.6504L226.97 89.4199V78.4199L225.34 78.1904V77H238.52Z" stroke="black"/>
</g>
<defs>
<clipPath id="clip0_37_213">
<rect width="317.55" height="110.55" fill="white"/>
</clipPath>
</defs>
</svg>
