<svg width="56" height="16" viewBox="0 0 56 16" fill="none" xmlns="http://www.w3.org/2000/svg">
<path d="M1.38 12V3.24H2.46V11.016H6.42V12H1.38ZM10.7953 12.12C10.2673 12.12 9.81131 12.02 9.42731 11.82C9.05131 11.62 8.75931 11.332 8.55131 10.956C8.35131 10.572 8.25131 10.12 8.25131 9.6V5.64C8.25131 5.112 8.35131 4.66 8.55131 4.284C8.75931 3.908 9.05131 3.62 9.42731 3.42C9.81131 3.22 10.2673 3.12 10.7953 3.12C11.3233 3.12 11.7753 3.22 12.1513 3.42C12.5353 3.62 12.8273 3.908 13.0273 4.284C13.2353 4.66 13.3393 5.108 13.3393 5.628V9.6C13.3393 10.12 13.2353 10.572 13.0273 10.956C12.8273 11.332 12.5353 11.62 12.1513 11.82C11.7753 12.02 11.3233 12.12 10.7953 12.12ZM10.7953 11.148C11.2673 11.148 11.6273 11.016 11.8753 10.752C12.1313 10.48 12.2593 10.096 12.2593 9.6V5.64C12.2593 5.144 12.1313 4.764 11.8753 4.5C11.6273 4.228 11.2673 4.092 10.7953 4.092C10.3313 4.092 9.97131 4.228 9.71531 4.5C9.45931 4.764 9.33131 5.144 9.33131 5.64V9.6C9.33131 10.096 9.45931 10.48 9.71531 10.752C9.97131 11.016 10.3313 11.148 10.7953 11.148ZM18.0386 12.12C17.5106 12.12 17.0506 12.02 16.6586 11.82C16.2746 11.62 15.9746 11.332 15.7586 10.956C15.5506 10.572 15.4466 10.12 15.4466 9.6V5.64C15.4466 5.112 15.5506 4.66 15.7586 4.284C15.9746 3.908 16.2746 3.62 16.6586 3.42C17.0506 3.22 17.5106 3.12 18.0386 3.12C18.5666 3.12 19.0226 3.224 19.4066 3.432C19.7906 3.632 20.0866 3.92 20.2946 4.296C20.5026 4.672 20.6066 5.12 20.6066 5.64H19.5266C19.5266 5.144 19.3946 4.764 19.1306 4.5C18.8746 4.228 18.5106 4.092 18.0386 4.092C17.5666 4.092 17.1946 4.224 16.9226 4.488C16.6586 4.752 16.5266 5.132 16.5266 5.628V9.6C16.5266 10.096 16.6586 10.48 16.9226 10.752C17.1946 11.016 17.5666 11.148 18.0386 11.148C18.5106 11.148 18.8746 11.016 19.1306 10.752C19.3946 10.48 19.5266 10.096 19.5266 9.6H20.6066C20.6066 10.112 20.5026 10.56 20.2946 10.944C20.0866 11.32 19.7906 11.612 19.4066 11.82C19.0226 12.02 18.5666 12.12 18.0386 12.12ZM22.6899 12V3.24H23.7699V6.996H25.0659L27.0099 3.24H28.1859L26.0139 7.452L28.3059 12H27.0699L25.0299 7.944H23.7699V12H22.6899ZM29.9813 12V3.24H35.0213V4.224H31.0493V6.936H34.6013V7.908H31.0493V11.016H35.0213V12H29.9813ZM37.0806 12V3.24H39.3486C39.9166 3.24 40.4046 3.348 40.8126 3.564C41.2286 3.78 41.5486 4.084 41.7726 4.476C42.0046 4.868 42.1206 5.332 42.1206 5.868V9.36C42.1206 9.896 42.0046 10.364 41.7726 10.764C41.5486 11.156 41.2286 11.46 40.8126 11.676C40.4046 11.892 39.9166 12 39.3486 12H37.0806ZM38.1606 11.04H39.3486C39.8766 11.04 40.2886 10.892 40.5846 10.596C40.8886 10.3 41.0406 9.888 41.0406 9.36V5.868C41.0406 5.348 40.8886 4.94 40.5846 4.644C40.2886 4.348 39.8766 4.2 39.3486 4.2H38.1606V11.04Z" fill="black"/>
<path d="M42.26 12V11.016H44.048V4.224H42.26V3.24H46.94V4.224H45.152V11.016H46.94V12H42.26ZM49.2753 12V3.24H50.7153L53.3913 10.74C53.3753 10.54 53.3553 10.296 53.3313 10.008C53.3153 9.712 53.2993 9.404 53.2833 9.084C53.2753 8.756 53.2713 8.448 53.2713 8.16V3.24H54.3153V12H52.8753L50.2113 4.5C50.2273 4.692 50.2433 4.936 50.2593 5.232C50.2753 5.52 50.2873 5.828 50.2953 6.156C50.3113 6.476 50.3193 6.784 50.3193 7.08V12H49.2753Z" fill="#0059FF"/>
</svg>
