<svg width="718" height="521" viewBox="0 0 718 521" fill="none" xmlns="http://www.w3.org/2000/svg">
<g filter="url(#filter0_dddddd_125_33)">
<path d="M272.68 262.96C274.57 262.96 275.89 264.82 275.26 266.62L274.63 268.48C274.12 269.98 272.68 271 271.06 271H253.21C251.32 271 250 269.17 250.63 267.37L255.73 252.55C256.27 251.05 257.68 250 259.3 250H262.72C264.61 250 265.93 251.86 265.3 253.66L261.01 266.11C260.71 266.98 261.37 267.94 262.3 267.94C263.83 267.94 265.21 266.95 265.69 265.51C266.23 263.98 267.64 262.96 269.26 262.96H272.68ZM303.098 253.6C304.358 254.2 304.988 255.64 304.508 256.96L300.548 268.48C300.008 269.98 298.568 271 296.978 271H288.008C287.018 271 286.058 270.79 285.188 270.37L279.068 267.43C277.838 266.83 277.208 265.39 277.688 264.07L281.648 252.55C282.188 251.05 283.598 250.03 285.218 250.03H294.188C295.178 250.03 296.108 250.24 297.008 250.66L303.098 253.6ZM287.078 267.85C287.168 267.91 287.288 267.94 287.408 267.94H289.538C290.288 267.94 290.948 267.46 291.188 266.74L292.478 262.96L293.558 259.87L295.538 254.14C295.658 253.78 295.478 253.36 295.118 253.18C295.028 253.12 294.908 253.12 294.788 253.12H292.658C291.908 253.12 291.248 253.57 291.008 254.29L289.718 258.07L288.638 261.16L286.658 266.89C286.538 267.25 286.718 267.67 287.078 267.85ZM313.676 271C307.856 271 303.776 265.27 305.666 259.78L308.156 252.55C308.696 251.05 310.106 250 311.726 250C316.346 250 325.736 250 330.506 250C331.946 250 332.936 251.44 332.486 252.79C331.946 254.38 330.446 255.43 328.766 255.43H322.826C322.226 255.43 321.806 254.83 322.016 254.26C322.196 253.69 321.776 253.09 321.176 253.09C319.226 253.09 317.516 254.35 316.886 256.18L315.026 261.55C313.946 264.67 316.256 267.94 319.556 267.94C321.566 267.94 323.606 267.94 325.076 267.94C326.156 267.94 326.906 268.96 326.546 269.98C326.336 270.61 325.736 271 325.076 271H313.676ZM359.019 254.53C358.599 255.7 357.759 256.66 356.619 257.2L347.529 261.58H352.719C354.609 261.58 355.929 263.44 355.329 265.21L354.189 268.45C353.679 269.98 352.239 271 350.649 271H347.229C345.339 271 344.019 269.14 344.619 267.34L346.449 262.09L341.079 264.67H341.049L339.759 268.48C339.219 269.98 337.779 271 336.189 271H332.769C330.879 271 329.559 269.17 330.189 267.37L335.289 252.55C335.829 251.05 337.239 250 338.859 250H342.279C344.169 250 345.489 251.86 344.859 253.66L342.489 260.56L346.119 258.82C347.229 258.28 348.099 257.32 348.489 256.15L349.719 252.55C350.259 251.05 351.699 250 353.289 250H356.709C358.599 250 359.919 251.86 359.319 253.66L359.019 254.53ZM359.924 271C358.034 271 356.714 269.17 357.344 267.37L362.444 252.55C362.984 251.05 364.394 250 366.014 250H385.424C386.534 250 387.344 251.14 386.954 252.19C386.294 254.14 384.464 255.43 382.424 255.43H377.114C376.514 255.43 376.094 254.83 376.304 254.26C376.484 253.69 376.064 253.09 375.464 253.09H374.894C373.304 253.09 371.864 254.14 371.324 255.64L370.184 258.97H375.884C376.934 258.97 377.684 260.02 377.354 261.01C377.114 261.64 376.544 262.06 375.884 262.06H369.134L368.354 264.28C367.724 266.08 369.074 267.94 370.964 267.94H379.364C380.444 267.94 381.164 268.96 380.834 269.98C380.624 270.61 380.024 271 379.364 271H359.924ZM407.854 250C410.974 250 413.164 253.09 412.144 256.03L410.494 260.86C408.394 266.92 402.664 271 396.214 271H386.434C384.544 271 383.224 269.17 383.854 267.37L388.954 252.55C389.494 251.05 390.904 250 392.524 250H407.854ZM394.054 266.62C393.844 267.25 394.324 267.94 394.984 267.94C396.844 267.94 398.494 266.74 399.094 265L400.864 259.87L402.394 255.43C402.784 254.29 401.944 253.09 400.744 253.09H399.664C399.094 253.09 398.614 253.48 398.404 253.99L394.054 266.62ZM413.354 271C411.464 271 410.144 269.17 410.774 267.37L415.874 252.55C416.414 251.05 417.824 250 419.444 250H422.864C424.754 250 426.074 251.86 425.444 253.66L420.344 268.48C419.804 269.98 418.394 271 416.774 271H413.354ZM464.347 250C466.237 250 467.557 251.86 466.957 253.66L461.827 268.48C461.317 269.98 459.877 271 458.257 271H440.467C438.577 271 437.257 269.17 437.857 267.37L442.507 253.96C442.597 253.69 442.477 253.39 442.207 253.27C441.997 253.15 441.727 253.09 441.487 253.09H439.567C438.817 253.09 438.157 253.57 437.917 254.26L433.027 268.48C432.487 269.98 431.077 271 429.457 271H426.037C424.147 271 422.827 269.17 423.457 267.37L428.557 252.55C429.097 251.05 430.507 250 432.127 250H440.377C441.817 250 443.257 250.33 444.547 250.96L448.477 252.85C450.607 253.87 451.627 256.33 450.877 258.58L448.177 266.32C447.907 267.1 448.507 267.94 449.317 267.94H450.787C451.537 267.94 452.227 267.43 452.497 266.71L457.597 251.86C457.987 250.75 459.037 250 460.207 250H464.347Z" fill="#4774D3"/>
</g>
<defs>
<filter id="filter0_dddddd_125_33" x="0" y="0" width="717.557" height="521" filterUnits="userSpaceOnUse" color-interpolation-filters="sRGB">
<feFlood flood-opacity="0" result="BackgroundImageFix"/>
<feColorMatrix in="SourceAlpha" type="matrix" values="0 0 0 0 0 0 0 0 0 0 0 0 0 0 0 0 0 0 127 0" result="hardAlpha"/>
<feOffset/>
<feGaussianBlur stdDeviation="12.9"/>
<feColorMatrix type="matrix" values="0 0 0 0 1 0 0 0 0 1 0 0 0 0 1 0 0 0 1 0"/>
<feBlend mode="normal" in2="BackgroundImageFix" result="effect1_dropShadow_125_33"/>
<feColorMatrix in="SourceAlpha" type="matrix" values="0 0 0 0 0 0 0 0 0 0 0 0 0 0 0 0 0 0 127 0" result="hardAlpha"/>
<feOffset/>
<feGaussianBlur stdDeviation="25.8"/>
<feColorMatrix type="matrix" values="0 0 0 0 1 0 0 0 0 1 0 0 0 0 1 0 0 0 1 0"/>
<feBlend mode="normal" in2="effect1_dropShadow_125_33" result="effect2_dropShadow_125_33"/>
<feColorMatrix in="SourceAlpha" type="matrix" values="0 0 0 0 0 0 0 0 0 0 0 0 0 0 0 0 0 0 127 0" result="hardAlpha"/>
<feOffset/>
<feGaussianBlur stdDeviation="90.3"/>
<feColorMatrix type="matrix" values="0 0 0 0 1 0 0 0 0 1 0 0 0 0 1 0 0 0 1 0"/>
<feBlend mode="normal" in2="effect2_dropShadow_125_33" result="effect3_dropShadow_125_33"/>
<feColorMatrix in="SourceAlpha" type="matrix" values="0 0 0 0 0 0 0 0 0 0 0 0 0 0 0 0 0 0 127 0" result="hardAlpha"/>
<feOffset/>
<feGaussianBlur stdDeviation="125"/>
<feColorMatrix type="matrix" values="0 0 0 0 1 0 0 0 0 1 0 0 0 0 1 0 0 0 1 0"/>
<feBlend mode="normal" in2="effect3_dropShadow_125_33" result="effect4_dropShadow_125_33"/>
<feColorMatrix in="SourceAlpha" type="matrix" values="0 0 0 0 0 0 0 0 0 0 0 0 0 0 0 0 0 0 127 0" result="hardAlpha"/>
<feOffset/>
<feGaussianBlur stdDeviation="125"/>
<feColorMatrix type="matrix" values="0 0 0 0 1 0 0 0 0 1 0 0 0 0 1 0 0 0 1 0"/>
<feBlend mode="normal" in2="effect4_dropShadow_125_33" result="effect5_dropShadow_125_33"/>
<feColorMatrix in="SourceAlpha" type="matrix" values="0 0 0 0 0 0 0 0 0 0 0 0 0 0 0 0 0 0 127 0" result="hardAlpha"/>
<feOffset/>
<feGaussianBlur stdDeviation="125"/>
<feColorMatrix type="matrix" values="0 0 0 0 1 0 0 0 0 1 0 0 0 0 1 0 0 0 1 0"/>
<feBlend mode="normal" in2="effect5_dropShadow_125_33" result="effect6_dropShadow_125_33"/>
<feBlend mode="normal" in="SourceGraphic" in2="effect6_dropShadow_125_33" result="shape"/>
</filter>
</defs>
</svg>
