<svg width="36" height="45" viewBox="0 0 36 45" fill="none" xmlns="http://www.w3.org/2000/svg">
<path d="M35.8202 23.348C35.8362 23.3014 35.8591 23.2584 35.8746 23.2118C36.0305 22.7493 36.0305 22.2507 35.8746 21.7882C35.8591 21.7414 35.8359 21.6984 35.8202 21.6521C35.8137 21.6359 35.808 21.6203 35.8011 21.6044C34.1324 16.7979 30.2839 12.9769 25.454 11.3664C24.2677 10.9698 23.0022 11.6103 22.6089 12.7901C22.2157 13.9688 22.8528 15.2419 24.0304 15.6352C26.5287 16.4674 28.6683 18.1125 30.1322 20.2502H13.4932C12.2497 20.2502 11.2434 21.2577 11.2434 22.5C11.2434 23.7424 12.2497 24.7498 13.4932 24.7498H30.1322C28.6681 26.8873 26.5287 28.5324 24.0304 29.3648C22.8528 29.7581 22.2157 31.0312 22.6089 32.2099C22.923 33.1535 23.7997 33.7501 24.7422 33.7501C24.9773 33.7501 25.2167 33.7128 25.454 33.6336C30.2839 32.0232 34.1324 28.2021 35.8011 23.3957C35.808 23.3797 35.8137 23.3642 35.8202 23.348Z" fill="white"/>
<path d="M1.51271 35.8492C2.51679 40.1906 5.84087 43.4773 9.97802 44.2234L10.7139 44.3563C13.0911 44.7858 15.4815 45 17.8741 45C20.2668 45 22.6594 44.7858 25.0343 44.3575C27.9807 43.8258 30.5864 41.977 32.1815 39.2855C32.8143 38.2166 32.4627 36.8368 31.3927 36.2031C30.3227 35.5693 28.9429 35.9241 28.3103 36.9919C27.3809 38.5584 25.8958 39.6295 24.2347 39.9294C20.0164 40.6896 15.7343 40.6896 11.516 39.9294L10.7801 39.7953C8.41171 39.369 6.49578 37.4225 5.89823 34.8365C4.03293 26.7656 4.03293 18.2344 5.89823 10.1635C6.49556 7.57734 8.41148 5.63082 10.7821 5.20336L11.5137 5.07039C15.7321 4.31019 20.0164 4.31019 24.2347 5.07039C25.7574 5.34622 27.1152 6.24794 28.0554 7.61244C28.7629 8.63407 30.1623 8.88785 31.1862 8.18479C32.2078 7.47835 32.465 6.07785 31.7596 5.0551C30.1317 2.69866 27.7433 1.13213 25.0343 0.64347C20.2843 -0.215502 15.4662 -0.213477 10.7117 0.64347L9.98027 0.775308C5.84109 1.52224 2.51679 4.80919 1.51271 9.15062C-0.504236 17.8837 -0.504236 27.1159 1.51271 35.8492Z" fill="white"/>
</svg>
