<svg width="59" height="38" viewBox="0 0 59 38" fill="none" xmlns="http://www.w3.org/2000/svg">
<path d="M18.314 6.80262C18.314 3.05243 15.2634 0 11.5142 0C7.76495 0 4.71535 3.05243 4.71535 6.80262C4.71535 10.5528 7.76495 13.6032 11.5142 13.6032C15.2634 13.6032 18.314 10.5528 18.314 6.80262ZM11.5142 4.21536C12.9402 4.21536 14.0997 5.37623 14.0997 6.80262C14.0997 8.22901 12.9402 9.38782 11.5142 9.38782C10.0892 9.38782 8.92964 8.22901 8.92964 6.80262C8.92964 5.37623 10.0892 4.21536 11.5142 4.21536ZM2.10714 30.4502C3.2708 30.4502 4.21429 29.5075 4.21429 28.3425C4.21429 27.8368 4.27139 27.3405 4.37222 26.8559C4.65799 25.4827 5.33345 24.2162 6.35332 23.1968C7.73408 21.8157 9.5696 21.0562 11.5224 21.0562C12.0197 21.0562 12.5104 21.1077 12.9824 21.2052C13.4644 21.3048 13.927 21.4524 14.3559 21.649C15.4085 22.1204 16.6617 21.6655 17.1473 20.6055C17.6309 19.5475 17.1637 18.2961 16.105 17.8124C14.7119 17.1764 13.1275 16.8409 11.5224 16.8409C8.44401 16.8409 5.54977 18.0388 3.37369 20.2164C1.19761 22.392 0 25.2778 0 28.3425C0 29.5075 0.943481 30.4502 2.10714 30.4502ZM40.686 6.80262C40.686 10.5528 43.7366 13.6032 47.4858 13.6032C51.2351 13.6032 54.2847 10.5528 54.2847 6.80262C54.2847 3.05243 51.2351 0 47.4858 0C43.7366 0 40.686 3.05243 40.686 6.80262ZM47.4858 9.38782C46.0598 9.38782 44.9003 8.22901 44.9003 6.80262C44.9003 5.37623 46.0598 4.21536 47.4858 4.21536C48.9108 4.21536 50.0704 5.37623 50.0704 6.80262C50.0704 8.22901 48.9108 9.38782 47.4858 9.38782ZM47.4776 16.8409C45.8725 16.8409 44.2881 17.1764 42.895 17.8124C41.8363 18.2961 41.3691 19.5475 41.8527 20.6055C42.3363 21.6655 43.5895 22.1224 44.6441 21.649C45.073 21.4524 45.5356 21.3048 46.0176 21.2052C46.4896 21.1077 46.9803 21.0562 47.4776 21.0562C49.4304 21.0562 51.2659 21.8157 52.6467 23.1968C53.6666 24.2162 54.342 25.4827 54.6278 26.8559C54.7286 27.3405 54.7857 27.8368 54.7857 28.3425C54.7857 29.5075 55.7292 30.4502 56.8929 30.4502C58.0565 30.4502 59 29.5075 59 28.3425C59 25.2778 57.8024 22.392 55.6263 20.2164C53.4502 18.0388 50.556 16.8409 47.4776 16.8409ZM37.5047 9.44134C37.5047 5.02632 33.9139 1.43462 29.5 1.43462C25.0861 1.43462 21.4953 5.02632 21.4953 9.44134C21.4953 13.8564 25.0861 17.4481 29.5 17.4481C33.9139 17.4481 37.5047 13.8564 37.5047 9.44134ZM29.5 5.64998C31.5897 5.64998 33.2904 7.35012 33.2904 9.44134C33.2904 11.5326 31.5897 13.2327 29.5 13.2327C27.4103 13.2327 25.7096 11.5326 25.7096 9.44134C25.7096 7.35012 27.4103 5.64998 29.5 5.64998ZM17.6782 38C18.8415 38 19.7846 37.0556 19.7851 35.8913C19.7851 30.5336 24.1437 26.1731 29.5 26.1731C34.8563 26.1731 39.2147 30.5326 39.2147 35.8903C39.2152 37.0546 40.1585 37.9979 41.3218 37.9979C42.4855 37.9979 43.429 37.0552 43.429 35.8903C43.429 28.2088 37.1806 21.9578 29.5 21.9578C21.8194 21.9578 15.571 28.2088 15.571 35.8923C15.571 37.0573 16.5145 38 17.6782 38Z" fill="#FEFFFC"/>
</svg>
