<svg width="63" height="63" viewBox="0 0 63 63" fill="none" xmlns="http://www.w3.org/2000/svg">
<path d="M30.6021 63C27.8407 63 25.6021 60.7614 25.6021 58V41.8617C25.6021 39.1003 23.3636 36.8617 20.6021 36.8617H5C2.23858 36.8617 0 34.6231 0 31.8617V31.1383C0 28.3769 2.23858 26.1383 5 26.1383H20.6021C23.3635 26.1383 25.6021 23.8997 25.6021 21.1383V5C25.6021 2.23858 27.8407 0 30.6021 0H32.3979C35.1593 0 37.3979 2.23858 37.3979 5V21.1383C37.3979 23.8997 39.6364 26.1383 42.3979 26.1383H58C60.7614 26.1383 63 28.3769 63 31.1383V31.8617C63 34.6231 60.7614 36.8617 58 36.8617H42.3979C39.6365 36.8617 37.3979 39.1003 37.3979 41.8617V58C37.3979 60.7614 35.1593 63 32.3979 63H30.6021Z" fill="white"/>
</svg>
